<svg fill="none" height="370" width="2500" xmlns="http://www.w3.org/2000/svg" viewBox="0 0 2519.2000000000003 373"><path d="M301.906 171.585L177.316 47 81 143.308v102.935c0 14.224 11.651 25.903 25.864 25.903l114.161.152L312.629 373l.384-100.389 44.123-.313c14.203 0 25.864-11.669 25.864-25.903v-74.81z" fill="#455a64"/><path d="M308.853 0H155.147L0 151h44.07L177.006 18.543 309.942 151H464z" fill="#fb8c00"/><path d="M490.449 280V49.454h55.723v92.534h90.845V49.454h55.61V280h-55.61v-92.646h-90.845V280zM808.293 283.265c-18.161 0-33.771-3.715-46.829-11.145-12.983-7.505-23.002-17.936-30.057-31.295-6.979-13.433-10.469-29.006-10.469-46.717 0-17.786 3.49-33.358 10.469-46.717 7.055-13.433 17.074-23.865 30.057-31.294 13.058-7.505 28.668-11.258 46.829-11.258 18.162 0 33.734 3.753 46.717 11.258 13.059 7.429 23.078 17.861 30.057 31.294 7.054 13.359 10.582 28.931 10.582 46.717 0 17.711-3.528 33.284-10.582 46.717-6.979 13.359-16.998 23.79-30.057 31.295-12.983 7.43-28.555 11.145-46.717 11.145zm.338-41.539c6.604 0 12.195-2.026 16.773-6.079s8.068-9.681 10.469-16.886c2.477-7.204 3.715-15.534 3.715-24.99 0-9.606-1.238-18.012-3.715-25.216-2.401-7.205-5.891-12.833-10.469-16.886s-10.169-6.079-16.773-6.079c-6.829 0-12.608 2.026-17.336 6.079-4.653 4.053-8.217 9.681-10.694 16.886-2.401 7.204-3.602 15.61-3.602 25.216 0 9.456 1.201 17.786 3.602 24.99 2.477 7.205 6.041 12.833 10.694 16.886 4.728 4.053 10.507 6.079 17.336 6.079zM923.848 280V107.091h52.345v31.745h1.914c3.602-10.507 9.681-18.799 18.236-24.878 8.557-6.079 18.767-9.119 30.617-9.119 12.01 0 22.29 3.077 30.85 9.231 8.55 6.154 13.99 14.409 16.32 24.766h1.8c3.23-10.282 9.53-18.499 18.91-24.653 9.38-6.229 20.45-9.344 33.21-9.344 16.36 0 29.65 5.254 39.85 15.76 10.21 10.432 15.31 24.766 15.31 43.003V280h-55.05V176.21c0-8.631-2.21-15.198-6.64-19.7-4.43-4.578-10.17-6.867-17.22-6.867-7.58 0-13.55 2.476-17.9 7.429-4.28 4.879-6.42 11.445-6.42 19.7V280h-52.9V175.647c0-8.03-2.18-14.372-6.53-19.025-4.36-4.653-10.1-6.979-17.23-6.979-4.8 0-9.04 1.163-12.718 3.489-3.677 2.252-6.566 5.479-8.668 9.682-2.026 4.202-3.039 9.155-3.039 14.859V280zM1298.15 283.265c-18.09 0-33.7-3.565-46.83-10.695-13.06-7.204-23.12-17.448-30.17-30.732-6.98-13.358-10.47-29.231-10.47-47.617 0-17.861 3.53-33.471 10.58-46.83 7.05-13.433 17-23.865 29.83-31.294 12.83-7.505 27.96-11.258 45.37-11.258 12.31 0 23.56 1.914 33.77 5.742 10.21 3.827 19.02 9.493 26.45 16.998s13.21 16.773 17.34 27.805c4.13 10.957 6.19 23.527 6.19 37.711v13.734h-150.28v-31.97h99.06c-.07-5.854-1.46-11.07-4.16-15.648-2.71-4.578-6.42-8.142-11.15-10.694-4.65-2.627-10.02-3.94-16.1-3.94-6.15 0-11.67 1.388-16.54 4.165-4.88 2.702-8.75 6.417-11.6 11.145-2.85 4.653-4.35 9.943-4.5 15.872v32.533c0 7.055 1.39 13.246 4.16 18.574 2.78 5.254 6.72 9.344 11.82 12.271 5.11 2.927 11.18 4.39 18.24 4.39 4.88 0 9.31-.675 13.28-2.026 3.98-1.351 7.39-3.34 10.25-5.967 2.85-2.626 4.99-5.853 6.41-9.681l50.55 1.464c-2.1 11.332-6.72 21.201-13.85 29.606-7.05 8.33-16.32 14.822-27.8 19.475-11.49 4.578-24.77 6.867-39.85 6.867z" fill="#f19200"/><g fill="#67747b"><path d="M1428.25 280h-29.27l84.66-230.546h28.81L1597.11 280h-29.27l-68.9-194.072h-1.8zm10.81-90.057h117.97v24.766h-117.97zM1694.71 283.602c-14.41 0-27.13-3.64-38.17-10.919-11.03-7.355-19.66-17.711-25.89-31.07-6.23-13.433-9.34-29.306-9.34-47.617 0-18.162 3.11-33.922 9.34-47.28 6.23-13.359 14.9-23.678 26.01-30.957 11.1-7.28 23.94-10.92 38.5-10.92 11.25 0 20.15 1.877 26.68 5.629 6.6 3.677 11.63 7.88 15.08 12.608 3.53 4.653 6.27 8.48 8.22 11.482h2.25V49.455h26.57V280h-25.67v-26.567h-3.15c-1.95 3.152-4.73 7.13-8.33 11.933-3.6 4.728-8.75 8.968-15.42 12.72-6.68 3.678-15.58 5.516-26.68 5.516zm3.6-23.865c10.65 0 19.66-2.777 27.02-8.33 7.35-5.629 12.94-13.396 16.77-23.302 3.83-9.982 5.74-21.501 5.74-34.56 0-12.908-1.88-24.202-5.63-33.883-3.75-9.757-9.31-17.336-16.66-22.74-7.35-5.478-16.44-8.217-27.24-8.217-11.26 0-20.64 2.889-28.14 8.668-7.43 5.703-13.03 13.471-16.78 23.302-3.67 9.756-5.51 20.713-5.51 32.87 0 12.308 1.87 23.49 5.62 33.547 3.83 9.981 9.46 17.936 16.89 23.865 7.51 5.853 16.81 8.78 27.92 8.78zM1967.69 107.091L1903.75 280h-27.02l-63.94-172.909h28.82l47.73 137.787h1.8l47.73-137.787zM2002.76 280V107.091h26.56V280zm13.51-201.727c-5.18 0-9.65-1.764-13.4-5.291-3.68-3.527-5.52-7.768-5.52-12.72 0-4.954 1.84-9.194 5.52-12.721 3.75-3.527 8.22-5.291 13.4-5.291 5.17 0 9.6 1.764 13.28 5.29 3.75 3.528 5.63 7.768 5.63 12.721s-1.88 9.194-5.63 12.72c-3.68 3.528-8.11 5.292-13.28 5.292zM2200.46 145.815l-23.87 6.755c-1.5-3.978-3.71-7.843-6.64-11.595-2.85-3.828-6.75-6.98-11.7-9.456-4.96-2.477-11.3-3.715-19.03-3.715-10.58 0-19.4 2.439-26.45 7.317-6.98 4.803-10.47 10.919-10.47 18.349 0 6.604 2.4 11.82 7.2 15.648 4.8 3.827 12.31 7.016 22.52 9.568l25.66 6.304c15.46 3.752 26.98 9.494 34.56 17.223 7.58 7.655 11.37 17.524 11.37 29.607 0 9.906-2.85 18.761-8.55 26.566-5.63 7.805-13.51 13.959-23.64 18.462-10.14 4.503-21.92 6.754-35.35 6.754-17.64 0-32.23-3.827-43.79-11.482s-18.88-18.837-21.95-33.546l25.21-6.304c2.4 9.306 6.94 16.285 13.62 20.938 6.76 4.653 15.58 6.98 26.46 6.98 12.38 0 22.21-2.627 29.49-7.88 7.36-5.329 11.03-11.708 11.03-19.138 0-6.003-2.1-11.032-6.3-15.084-4.2-4.128-10.66-7.205-19.36-9.231l-28.82-6.754c-15.84-3.753-27.47-9.569-34.9-17.449-7.35-7.955-11.03-17.898-11.03-29.831 0-9.756 2.74-18.387 8.22-25.891 5.55-7.505 13.09-13.396 22.63-17.674 9.6-4.278 20.48-6.417 32.64-6.417 17.11 0 30.54 3.753 40.3 11.258 9.83 7.504 16.81 17.411 20.94 29.718zM2313.85 283.602c-15.61 0-29.31-3.715-41.09-11.144-11.71-7.43-20.87-17.824-27.47-31.182-6.53-13.359-9.79-28.969-9.79-46.83 0-18.011 3.26-33.734 9.79-47.167 6.6-13.434 15.76-23.865 27.47-31.295 11.78-7.43 25.48-11.145 41.09-11.145s29.26 3.715 40.97 11.145c11.78 7.43 20.94 17.861 27.47 31.295 6.6 13.433 9.91 29.156 9.91 47.167 0 17.861-3.31 33.471-9.91 46.83-6.53 13.358-15.69 23.752-27.47 31.182-11.71 7.429-25.36 11.144-40.97 11.144zm0-23.865c11.85 0 21.61-3.039 29.26-9.118 7.66-6.079 13.33-14.071 17-23.978 3.68-9.906 5.52-20.638 5.52-32.195s-1.84-22.327-5.52-32.308c-3.67-9.981-9.34-18.049-17-24.203-7.65-6.154-17.41-9.23-29.26-9.23-11.86 0-21.62 3.076-29.27 9.23-7.66 6.154-13.32 14.222-17 24.203s-5.52 20.751-5.52 32.308 1.84 22.289 5.52 32.195c3.68 9.907 9.34 17.899 17 23.978 7.65 6.079 17.41 9.118 29.27 9.118zM2432.75 280V107.091h25.67v26.116h1.8c3.15-8.555 8.85-15.497 17.11-20.825 8.25-5.329 17.56-7.993 27.92-7.993 1.95 0 4.39.038 7.31.113 2.93.075 5.14.187 6.64.337v27.018c-.9-.226-2.96-.563-6.19-1.014-3.15-.525-6.49-.788-10.02-.788-8.4 0-15.91 1.764-22.51 5.291-6.53 3.452-11.71 8.255-15.54 14.409-3.75 6.079-5.62 13.021-5.62 20.826V280z"/></g></svg>